Lola 2.ufo
<glyph name="comma" format="2">
  <advance width="500"/>
  <unicode hex="002C"/>
  <outline>
    <contour>
      <point x="184" y="-9" type="line"/>
      <point x="315" y="-9" type="line"/>
      <point x="315" y="133" type="line"/>
      <point x="184" y="133" type="line"/>
    </contour>
  </outline>
</glyph>
<glyph name="period" format="2">
  <advance width="500"/>
  <unicode hex="002E"/>
  <outline>
    <contour>
      <point x="183" y="28" type="line"/>
      <point x="310" y="-35" type="line"/>
      <point x="368" y="83" type="line"/>
      <point x="241" y="146" type="line"/>
    </contour>
  </outline>
</glyph>
<glyph name="A" format="2">
  <advance width="600"/>
  <unicode hex="0041"/>
  <outline>
    <contour>
      <point x="51" y="21" type="line"/>
      <point x="202" y="476" type="line"/>
      <point x="363" y="468" type="line"/>
      <point x="449" y="16" type="line"/>
      <point x="289" y="20" type="line"/>
      <point x="268" y="364" type="line"/>
      <point x="310" y="357" type="line"/>
      <point x="186" y="36" type="line"/>
    </contour>
  </outline>
</glyph>
<glyph name="a" format="2">
  <advance width="556"/>
  <unicode hex="0061"/>
  <outline>
    <contour>
      <point x="372" y="288" type="line"/>
      <point x="31" y="250" type="line"/>
      <point x="26" y="202"/>
      <point x="25" y="141"/>
      <point x="27" y="92" type="curve"/>
      <point x="51" y="51"/>
      <point x="93" y="7"/>
      <point x="149" y="5" type="curve" smooth="yes"/>
      <point x="233" y="2"/>
      <point x="321" y="58"/>
      <point x="394" y="138" type="curve"/>
      <point x="367" y="130" type="line"/>
      <point x="318" y="117"/>
      <point x="269" y="117"/>
      <point x="219" y="130" type="curve"/>
      <point x="219" y="235" type="line"/>
      <point x="381" y="235" type="line"/>
    </contour>
    <contour>
      <point x="46" y="501" type="curve"/>
      <point x="46" y="323" type="line"/>
      <point x="366" y="322" type="line"/>
      <point x="324" y="350" type="line"/>
      <point x="325" y="2" type="line"/>
      <point x="550" y="2" type="line"/>
      <point x="552" y="291" type="line"/>
      <point x="551" y="425"/>
      <point x="416" y="274"/>
      <point x="311" y="419" type="curve" smooth="yes"/>
      <point x="256" y="495"/>
      <point x="161" y="501"/>
    </contour>
  </outline>
</glyph>
<glyph name="b" format="2">
	<advance width="713"/>
	<unicode hex="0062"/>
	<outline>
		<contour>
			<point x="674" y="250" type="curve" smooth="yes"/>
			<point x="674" y="72"/>
			<point x="593" y="-17"/>
			<point x="462" y="-17" type="curve" smooth="yes"/>
			<point x="382" y="-17"/>
			<point x="300" y="48"/>
			<point x="281" y="136" type="curve"/>
			<point x="319" y="116" type="line"/>
			<point x="86" y="-18" type="line"/>
			<point x="70" y="-12"/>
			<point x="53" y="-6"/>
			<point x="37" y="0" type="curve"/>
			<point x="37" y="686" type="line"/>
			<point x="307" y="735" type="line"/>
			<point x="307" y="334" type="line"/>
			<point x="291" y="339" type="line"/>
			<point x="331" y="429"/>
			<point x="402" y="497"/>
			<point x="499" y="497" type="curve" smooth="yes"/>
			<point x="603" y="497"/>
			<point x="674" y="432"/>
		</contour>
		<contour>
			<point x="309" y="153" type="line"/>
			<point x="341" y="136"/>
			<point x="374" y="136"/>
			<point x="406" y="153" type="curve"/>
			<point x="406" y="331" type="line"/>
			<point x="309" y="331" type="line"/>
		</contour>
	</outline>
</glyph>
<glyph name="c" format="2">
	<advance width="529"/>
	<unicode hex="0063"/>
	<outline>
		<contour>
			<point x="275" y="519" type="curve"/>
			<point x="-113" y="519"/>
			<point x="-109" y="0"/>
			<point x="280" y="0" type="curve"/>
			<point x="351" y="2"/>
			<point x="425" y="12"/>
			<point x="497" y="23" type="curve"/>
			<point x="497" y="179" type="line"/>
			<point x="215" y="179" type="line"/>
			<point x="215" y="424" type="line"/>
			<point x="171" y="382" type="line"/>
			<point x="325" y="382" type="line"/>
			<point x="325" y="274" type="line"/>
			<point x="517" y="274" type="line"/>
			<point x="517" y="419"/>
			<point x="450" y="519"/>
		</contour>
	</outline>
</glyph>
<glyph name="d" format="2">
	<advance width="662"/>
	<unicode hex="0064"/>
	<outline>
		<contour>
			<point x="10" y="250" type="curve" smooth="yes"/>
			<point x="10" y="432"/>
			<point x="81" y="497"/>
			<point x="185" y="497" type="curve" smooth="yes"/>
			<point x="282" y="497"/>
			<point x="353" y="429"/>
			<point x="393" y="339" type="curve"/>
			<point x="377" y="334" type="line"/>
			<point x="377" y="735" type="line"/>
			<point x="647" y="695" type="line"/>
			<point x="647" y="0" type="line"/>
			<point x="384" y="0" type="line"/>
			<point x="416" y="168" type="line"/>
			<point x="407" y="168" type="line"/>
			<point x="403" y="64"/>
			<point x="311" y="-17"/>
			<point x="222" y="-17" type="curve" smooth="yes"/>
			<point x="91" y="-17"/>
			<point x="10" y="72"/>
		</contour>
		<contour>
			<point x="375" y="153" type="line"/>
			<point x="375" y="331" type="line"/>
			<point x="278" y="331" type="line"/>
			<point x="278" y="153" type="line"/>
		</contour>
	</outline>
</glyph>
<glyph name="e" format="2">
  <advance width="546"/>
  <unicode hex="0065"/>
  <outline>
    <contour>
      <point x="339" y="277" type="move"/>
      <point x="181" y="277" type="line"/>
      <point x="181" y="230" type="line"/>
      <point x="411" y="230" type="line"/>
      <point x="411" y="422"/>
      <point x="387" y="500"/>
      <point x="277" y="500" type="curve"/>
      <point x="91" y="498"/>
      <point x="3" y="374"/>
      <point x="89" y="215" type="curve"/>
      <point x="3" y="121"/>
      <point x="96" y="-8"/>
      <point x="273" y="-8" type="curve" smooth="yes"/>
      <point x="274" y="-8"/>
      <point x="276" y="-8"/>
      <point x="277" y="-8" type="curve"/>
      <point x="312" y="-7"/>
      <point x="346" y="9"/>
      <point x="383" y="15" type="curve"/>
      <point x="383" y="179" type="line"/>
      <point x="207" y="179" type="line"/>
      <point x="152" y="454" type="line"/>
      <point x="118" y="412" type="line"/>
      <point x="339" y="374" type="line"/>
    </contour>
  </outline>
</glyph>
<glyph name="f" format="2">
  <advance width="473"/>
  <unicode hex="0066"/>
  <outline>
    <contour>
      <point x="474" y="792" type="line"/>
      <point x="120" y="792"/>
      <point x="88" y="759"/>
      <point x="88" y="545" type="curve"/>
      <point x="90" y="0" type="line"/>
      <point x="313" y="0" type="line"/>
      <point x="313" y="623" type="line"/>
      <point x="259" y="595" type="line"/>
      <point x="474" y="595" type="line"/>
    </contour>
    <contour>
      <point x="0" y="488" type="line"/>
      <point x="0" y="394" type="line"/>
      <point x="468" y="394" type="line"/>
      <point x="468" y="488" type="line"/>
    </contour>
  </outline>
</glyph>
<glyph name="g" format="2">
  <advance width="591"/>
  <unicode hex="0067"/>
  <outline>
    <contour>
      <point x="574" y="324" type="curve"/>
      <point x="574" y="556"/>
      <point x="18" y="575"/>
      <point x="18" y="324" type="curve"/>
      <point x="13" y="49"/>
      <point x="577" y="63"/>
    </contour>
    <contour>
      <point x="247" y="411" type="line"/>
      <point x="347" y="411" type="line"/>
      <point x="347" y="205" type="line"/>
      <point x="314" y="193"/>
      <point x="280" y="193"/>
      <point x="247" y="205" type="curve"/>
    </contour>
    <contour>
      <point x="18" y="134" type="line"/>
      <point x="6" y="-49"/>
      <point x="18" y="-136"/>
      <point x="142" y="-136" type="curve"/>
      <point x="210" y="-136"/>
      <point x="346" y="-135"/>
      <point x="557" y="-135" type="curve"/>
      <point x="557" y="-73"/>
      <point x="557" y="-17"/>
      <point x="557" y="52" type="curve"/>
      <point x="199" y="52" type="line"/>
      <point x="199" y="112" type="line"/>
      <point x="330" y="125" type="line"/>
      <point x="330" y="138" type="line"/>
    </contour>
    <contour>
      <point x="325" y="431" type="line"/>
      <point x="374" y="409" type="line"/>
      <point x="402" y="429"/>
      <point x="431" y="454"/>
      <point x="459" y="475" type="curve"/>
      <point x="501" y="475"/>
      <point x="545" y="475"/>
      <point x="593" y="475" type="curve"/>
      <point x="594" y="717" type="line"/>
    </contour>
  </outline>
</glyph>
<glyph name="h" format="2">
	<advance width="746"/>
	<unicode hex="0068"/>
	<outline>
		<contour>
			<point x="39" y="634" type="line"/>
			<point x="39" y="0" type="line"/>
			<point x="305" y="0" type="line"/>
			<point x="305" y="713" type="line"/>
		</contour>
		<contour>
			<point x="537" y="499" type="curve" smooth="yes"/>
			<point x="403" y="499"/>
			<point x="308" y="373"/>
			<point x="267" y="298" type="curve"/>
			<point x="403" y="298" type="line"/>
			<point x="403" y="0" type="line"/>
			<point x="703" y="0" type="line"/>
			<point x="703" y="288" type="line"/>
			<point x="703" y="435"/>
			<point x="644" y="499"/>
		</contour>
	</outline>
</glyph>
<glyph name="i" format="2">
  <advance width="343"/>
  <unicode hex="0069"/>
  <outline>
    <contour>
      <point x="41" y="500" type="line"/>
      <point x="41" y="0" type="line"/>
      <point x="311" y="0" type="line"/>
      <point x="311" y="500" type="line"/>
    </contour>
    <contour>
      <point x="172" y="840" type="line"/>
      <point x="25" y="689" type="line"/>
      <point x="176" y="542" type="line"/>
      <point x="323" y="693" type="line"/>
    </contour>
    <contour>
      <point x="0" y="119" type="line"/>
      <point x="0" y="-1" type="line"/>
      <point x="343" y="-1" type="line"/>
      <point x="343" y="108" type="line"/>
      <point x="269" y="170" type="line"/>
      <point x="81" y="170" type="line"/>
    </contour>
  </outline>
</glyph>
<glyph name="j" format="2">
	<advance width="317"/>
	<unicode hex="006A"/>
	<outline>
		<contour>
			<point x="291" y="82" type="line"/>
			<point x="291" y="500" type="line"/>
			<point x="21" y="500" type="line"/>
			<point x="21" y="82" type="line"/>
			<point x="-17" y="-153" type="line"/>
			<point x="262" y="-153" type="line"/>
		</contour>
		<contour>
			<point x="153" y="853" type="line"/>
			<point x="6" y="702" type="line"/>
			<point x="157" y="555" type="line"/>
			<point x="304" y="706" type="line"/>
		</contour>
	</outline>
</glyph>
<glyph name="k" format="2">
  <advance width="750"/>
  <unicode hex="006B"/>
  <outline>
    <contour>
      <point x="353" y="277" type="line"/>
      <point x="400" y="498" type="line"/>
      <point x="692" y="498" type="line"/>
      <point x="668" y="426"/>
      <point x="601" y="337"/>
      <point x="540" y="248" type="curve"/>
      <point x="542" y="299" type="line"/>
      <point x="614" y="172"/>
      <point x="653" y="101"/>
      <point x="690" y="0" type="curve"/>
      <point x="363" y="0" type="line"/>
      <point x="363" y="242" type="line"/>
    </contour>
    <contour>
      <point x="32" y="748" type="line"/>
      <point x="302" y="748" type="line"/>
      <point x="302" y="0" type="line"/>
      <point x="32" y="0" type="line"/>
    </contour>
    <contour>
      <point x="394" y="215" type="line"/>
      <point x="202" y="215" type="line"/>
      <point x="202" y="336" type="line"/>
      <point x="389" y="336" type="line"/>
    </contour>
  </outline>
</glyph>
<glyph name="l" format="2">
	<advance width="327"/>
	<unicode hex="006C"/>
	<outline>
		<contour>
			<point x="32" y="748" type="line"/>
			<point x="32" y="0" type="line"/>
			<point x="302" y="0" type="line"/>
			<point x="302" y="748" type="line"/>
		</contour>
	</outline>
</glyph>
<glyph name="m" format="2">
	<advance width="1062"/>
	<unicode hex="006D"/>
	<outline>
		<contour>
			<point x="519" y="499" type="curve"/>
			<point x="390" y="499"/>
			<point x="299" y="373"/>
			<point x="278" y="298" type="curve"/>
			<point x="408" y="298" type="line"/>
			<point x="408" y="0" type="line"/>
			<point x="678" y="0" type="line"/>
			<point x="678" y="306" type="line" smooth="yes"/>
			<point x="678" y="435"/>
			<point x="609" y="499"/>
		</contour>
		<contour>
			<point x="877" y="499" type="curve"/>
			<point x="761" y="499"/>
			<point x="700" y="420"/>
			<point x="684" y="320" type="curve" smooth="yes"/>
			<point x="683" y="312"/>
			<point x="638" y="306"/>
			<point x="636" y="298" type="curve"/>
			<point x="766" y="298" type="line"/>
			<point x="766" y="0" type="line"/>
			<point x="1036" y="0" type="line"/>
			<point x="1036" y="306" type="line" smooth="yes"/>
			<point x="1036" y="435"/>
			<point x="967" y="499"/>
		</contour>
		<contour>
			<point x="40" y="478" type="line"/>
			<point x="40" y="0" type="line"/>
			<point x="310" y="0" type="line"/>
			<point x="310" y="308" type="line"/>
			<point x="278" y="298" type="line"/>
			<point x="272" y="298" type="line"/>
			<point x="310" y="478" type="line"/>
		</contour>
		<contour>
			<point x="519" y="499" type="curve"/>
			<point x="390" y="499"/>
			<point x="299" y="373"/>
			<point x="278" y="298" type="curve"/>
			<point x="408" y="298" type="line"/>
			<point x="408" y="0" type="line"/>
			<point x="678" y="0" type="line"/>
			<point x="678" y="306" type="line" smooth="yes"/>
			<point x="678" y="435"/>
			<point x="609" y="499"/>
		</contour>
	</outline>
</glyph>
<glyph name="n" format="2">
	<advance width="698"/>
	<unicode hex="006E"/>
	<guideline x="-83" y="500" angle="0"/>
	<outline>
		<contour>
			<point x="30" y="500" type="line"/>
			<point x="30" y="0" type="line"/>
			<point x="300" y="0" type="line"/>
			<point x="300" y="330" type="line"/>
			<point x="268" y="320" type="line"/>
			<point x="262" y="320" type="line"/>
			<point x="300" y="500" type="line"/>
		</contour>
		<contour>
			<point x="514" y="522" type="curve"/>
			<point x="385" y="522"/>
			<point x="289" y="395"/>
			<point x="268" y="320" type="curve"/>
			<point x="398" y="320" type="line"/>
			<point x="398" y="0" type="line"/>
			<point x="668" y="0" type="line"/>
			<point x="673" y="329" type="line" smooth="yes"/>
			<point x="675" y="458"/>
			<point x="604" y="522"/>
		</contour>
	</outline>
</glyph>
<glyph name="o" format="2">
	<advance width="677"/>
	<unicode hex="006F"/>
	<outline>
		<contour>
			<point x="343" y="509" type="curve"/>
			<point x="133" y="509"/>
			<point x="18" y="388"/>
			<point x="18" y="240" type="curve" smooth="yes"/>
			<point x="18" y="93"/>
			<point x="133" y="-26"/>
			<point x="343" y="-26" type="curve"/>
			<point x="538" y="-26"/>
			<point x="659" y="93"/>
			<point x="659" y="240" type="curve" smooth="yes"/>
			<point x="659" y="388"/>
			<point x="538" y="509"/>
		</contour>
		<contour>
			<point x="289" y="384" type="line"/>
			<point x="387" y="384" type="line"/>
			<point x="387" y="97" type="line"/>
			<point x="289" y="97" type="line"/>
		</contour>
	</outline>
</glyph>
<glyph name="p" format="2">
	<advance width="1414"/>
	<unicode hex="0070"/>
	<outline>
		<contour>
			<point x="679" y="231" type="curve" smooth="yes"/>
			<point x="679" y="49"/>
			<point x="608" y="-16"/>
			<point x="504" y="-16" type="curve" smooth="yes"/>
			<point x="407" y="-16"/>
			<point x="336" y="52"/>
			<point x="296" y="142" type="curve"/>
			<point x="312" y="147" type="line"/>
			<point x="312" y="-164" type="line"/>
			<point x="42" y="-104" type="line"/>
			<point x="42" y="500" type="line"/>
			<point x="324" y="500" type="line"/>
			<point x="286" y="345" type="line"/>
			<point x="305" y="433"/>
			<point x="387" y="498"/>
			<point x="467" y="498" type="curve" smooth="yes"/>
			<point x="598" y="498"/>
			<point x="679" y="409"/>
		</contour>
		<contour>
			<point x="314" y="328" type="line"/>
			<point x="314" y="150" type="line"/>
			<point x="411" y="150" type="line"/>
			<point x="411" y="328" type="line"/>
		</contour>
		<contour>
			<point x="1379" y="231" type="curve" smooth="yes"/>
			<point x="1379" y="49"/>
			<point x="1308" y="-16"/>
			<point x="1204" y="-16" type="curve" smooth="yes"/>
			<point x="1107" y="-16"/>
			<point x="1036" y="52"/>
			<point x="996" y="142" type="curve"/>
			<point x="1012" y="147" type="line"/>
			<point x="1012" y="-164" type="line"/>
			<point x="742" y="-104" type="line"/>
			<point x="742" y="500" type="line"/>
			<point x="1024" y="500" type="line"/>
			<point x="986" y="345" type="line"/>
			<point x="1005" y="433"/>
			<point x="1087" y="498"/>
			<point x="1167" y="498" type="curve" smooth="yes"/>
			<point x="1298" y="498"/>
			<point x="1379" y="409"/>
		</contour>
		<contour>
			<point x="1014" y="328" type="line"/>
			<point x="1014" y="150" type="line"/>
			<point x="1111" y="150" type="line"/>
			<point x="1111" y="328" type="line"/>
		</contour>
	</outline>
</glyph>
<glyph name="q" format="2">
	<advance width="737"/>
	<unicode hex="0071"/>
	<outline>
		<contour>
			<point x="20" y="231" type="curve" smooth="yes"/>
			<point x="20" y="415"/>
			<point x="112" y="507"/>
			<point x="262" y="507" type="curve" smooth="yes"/>
			<point x="342" y="507"/>
			<point x="422.93081" y="437.95204"/>
			<point x="443" y="345" type="curve"/>
			<point x="405" y="365" type="line"/>
			<point x="638" y="499" type="line"/>
			<point x="687" y="481" type="line"/>
			<point x="687" y="-204" type="line"/>
			<point x="417" y="-294" type="line"/>
			<point x="417" y="147" type="line"/>
			<point x="433" y="142" type="line"/>
			<point x="391.17908" y="47.90294"/>
			<point x="323.60096" y="-25"/>
			<point x="228" y="-25" type="curve" smooth="yes"/>
			<point x="104.21463" y="-25"/>
			<point x="20" y="42"/>
		</contour>
		<contour>
			<point x="415" y="328" type="line"/>
			<point x="288" y="328" type="line"/>
			<point x="288" y="150" type="line"/>
			<point x="415" y="150" type="line"/>
		</contour>
	</outline>
</glyph>
<glyph name="r" format="2">
	<advance width="568"/>
	<unicode hex="0072"/>
	<outline>
		<contour>
			<point x="30" y="478" type="line"/>
			<point x="30" y="0" type="line"/>
			<point x="300" y="0" type="line"/>
			<point x="300" y="240" type="line"/>
			<point x="518" y="240" type="line"/>
			<point x="518" y="495" type="line"/>
			<point x="369" y="495"/>
			<point x="305" y="381"/>
			<point x="272" y="272" type="curve"/>
			<point x="297" y="300" type="line"/>
			<point x="234" y="300" type="line"/>
			<point x="256" y="269" type="line"/>
			<point x="300" y="478" type="line"/>
		</contour>
	</outline>
</glyph>
<glyph name="s" format="2">
  <advance width="457"/>
  <unicode hex="0073"/>
  <outline>
    <contour>
      <point x="264" y="182" type="line"/>
      <point x="97" y="182"/>
      <point x="20" y="239"/>
      <point x="20" y="333" type="curve" smooth="yes"/>
      <point x="20" y="454"/>
      <point x="134" y="512"/>
      <point x="232" y="512" type="curve" smooth="yes"/>
      <point x="311" y="512"/>
      <point x="386" y="501"/>
      <point x="446" y="462" type="curve"/>
      <point x="444" y="367" type="line"/>
      <point x="215" y="367" type="line"/>
      <point x="215" y="320" type="line"/>
      <point x="308" y="320"/>
      <point x="468" y="309"/>
      <point x="468" y="158" type="curve"/>
      <point x="468" y="7"/>
      <point x="343" y="-24"/>
      <point x="217" y="-24" type="curve" smooth="yes"/>
      <point x="144" y="-24"/>
      <point x="71" y="-14"/>
      <point x="21" y="10" type="curve"/>
      <point x="21" y="148" type="line"/>
      <point x="264" y="148" type="line"/>
    </contour>
  </outline>
</glyph>
<glyph name="t" format="2">
	<advance width="463"/>
	<unicode hex="0074"/>
	<outline>
		<contour>
			<point x="423" y="0" type="curve"/>
			<point x="443" y="204" type="line"/>
			<point x="252" y="205" type="line"/>
			<point x="294" y="177" type="line"/>
			<point x="293" y="621" type="line"/>
			<point x="48" y="591" type="line"/>
			<point x="46" y="226" type="line"/>
			<point x="47" y="102"/>
			<point x="115" y="-21"/>
			<point x="234" y="-21" type="curve" smooth="yes"/>
			<point x="292" y="-21"/>
			<point x="318" y="-23"/>
		</contour>
		<contour>
			<point x="0" y="500" type="line"/>
			<point x="1" y="415" type="line"/>
			<point x="454" y="415" type="line"/>
			<point x="453" y="500" type="line"/>
		</contour>
	</outline>
</glyph>
<glyph name="u" format="2">
	<advance width="695"/>
	<unicode hex="0075"/>
	<outline>
		<contour>
			<point x="645" y="0" type="line"/>
			<point x="645" y="499" type="line"/>
			<point x="375" y="499" type="line"/>
			<point x="375" y="0" type="line"/>
		</contour>
		<contour>
			<point x="166" y="0" type="curve"/>
			<point x="295" y="0"/>
			<point x="386" y="126"/>
			<point x="407" y="201" type="curve"/>
			<point x="277" y="201" type="line"/>
			<point x="277" y="499" type="line"/>
			<point x="7" y="499" type="line"/>
			<point x="7" y="193" type="line" smooth="yes"/>
			<point x="7" y="64"/>
			<point x="76" y="0"/>
		</contour>
	</outline>
</glyph>
<glyph name="v" format="2">
  <advance width="600"/>
  <unicode hex="0076"/>
  <outline>
    <contour>
      <point x="629" y="500" type="line"/>
      <point x="370" y="500" type="line"/>
      <point x="339" y="167" type="line"/>
      <point x="307" y="167" type="line"/>
      <point x="261" y="500" type="line"/>
      <point x="-10" y="500" type="line"/>
      <point x="131" y="-2" type="line"/>
      <point x="496" y="-2" type="line"/>
    </contour>
  </outline>
</glyph>
<glyph name="w" format="2">
	<advance width="960"/>
	<unicode hex="0077"/>
	<outline>
		<contour>
			<point x="27" y="500" type="line"/>
			<point x="168" y="-2" type="line"/>
			<point x="460" y="-2" type="line"/>
			<point x="484" y="220" type="line"/>
			<point x="512" y="220" type="line"/>
			<point x="531" y="-2" type="line"/>
			<point x="815" y="-2" type="line"/>
			<point x="948" y="500" type="line"/>
			<point x="700" y="500" type="line"/>
			<point x="669" y="167" type="line"/>
			<point x="652" y="167" type="line"/>
			<point x="608" y="500" type="line"/>
			<point x="397" y="500" type="line"/>
			<point x="339" y="167" type="line"/>
			<point x="324" y="167" type="line"/>
			<point x="278" y="500" type="line"/>
		</contour>
	</outline>
</glyph>
<glyph name="x" format="2">
  <advance width="625"/>
  <unicode hex="0078"/>
  <outline>
    <contour>
      <point x="258" y="-1" type="line"/>
      <point x="1" y="-1" type="line"/>
      <point x="155" y="319" type="line"/>
      <point x="155" y="189" type="line"/>
      <point x="-1" y="499" type="line"/>
      <point x="258" y="501.0" type="line"/>
      <point x="299" y="247" type="line"/>
    </contour>
    <contour>
      <point x="377" y="501.0" type="line"/>
      <point x="636" y="499" type="line"/>
      <point x="426" y="189" type="line"/>
      <point x="426" y="319" type="line"/>
      <point x="634" y="-1" type="line"/>
      <point x="377" y="-1" type="line"/>
      <point x="336" y="247" type="line"/>
    </contour>
    <contour>
      <point x="260" y="187" type="line"/>
      <point x="260" y="305" type="line"/>
      <point x="405" y="305" type="line"/>
      <point x="405" y="187" type="line"/>
    </contour>
  </outline>
</glyph>
<glyph name="y" format="2">
	<advance width="631"/>
	<unicode hex="0079"/>
	<guideline x="1392" y="58" angle="180"/>
	<guideline x="1396" y="172" angle="180"/>
	<outline>
		<contour>
			<point x="483" y="0" type="line"/>
			<point x="611" y="497" type="line"/>
			<point x="371" y="499" type="line"/>
			<point x="349" y="137" type="line"/>
			<point x="308" y="137" type="line"/>
			<point x="275" y="498" type="line"/>
			<point x="20" y="498" type="line"/>
			<point x="173" y="0" type="line"/>
		</contour>
		<contour>
			<point x="483" y="1" type="line"/>
			<point x="480" y="75" type="line"/>
			<point x="296" y="75" type="line"/>
			<point x="296" y="7" type="line"/>
			<point x="163" y="-248" type="line"/>
			<point x="412" y="-248" type="line"/>
		</contour>
	</outline>
</glyph>
<glyph name="H.sc" format="2">
  <advance width="500"/>
  <outline>
    <contour>
      <point x="-15" y="14" type="line"/>
      <point x="116" y="14" type="line"/>
      <point x="116" y="495" type="line"/>
      <point x="-15" y="495" type="line"/>
    </contour>
    <contour>
      <point x="303" y="-1" type="line"/>
      <point x="461" y="-1" type="line"/>
      <point x="461" y="495" type="line"/>
      <point x="303" y="495" type="line"/>
    </contour>
    <contour>
      <point x="68" y="200" type="line"/>
      <point x="432" y="200" type="line"/>
      <point x="432" y="331" type="line"/>
      <point x="68" y="331" type="line"/>
    </contour>
  </outline>
</glyph>
<glyph name="O.sc" format="2">
  <advance width="677"/>
  <outline>
    <contour>
      <point x="343" y="509" type="curve"/>
      <point x="133" y="509"/>
      <point x="18" y="388"/>
      <point x="18" y="240" type="curve" smooth="yes"/>
      <point x="18" y="93"/>
      <point x="133" y="-26"/>
      <point x="343" y="-26" type="curve"/>
      <point x="538" y="-26"/>
      <point x="659" y="93"/>
      <point x="659" y="240" type="curve" smooth="yes"/>
      <point x="659" y="388"/>
      <point x="538" y="509"/>
    </contour>
    <contour>
      <point x="289" y="384" type="line"/>
      <point x="387" y="384" type="line"/>
      <point x="387" y="97" type="line"/>
      <point x="289" y="97" type="line"/>
    </contour>
  </outline>
</glyph>
